<svg viewBox="0 0 1000 1000" xmlns="http://www.w3.org/2000/svg">
  <path
    d="M292.921 3.49688C239.721 6.00688 203.391 14.4969 171.631 26.9769C138.761 39.7869 110.901 56.9769 83.1808 84.7969C55.4608 112.617 38.3908 140.497 25.6708 173.417C13.3608 205.247 5.02081 241.607 2.67081 294.837C0.320811 348.067 -0.199189 365.177 0.0608107 500.957C0.320811 636.737 0.920811 653.757 3.50081 707.097C6.04081 760.287 14.5008 796.607 26.9808 828.377C39.8108 861.247 56.9808 889.097 84.8108 916.827C112.641 944.557 140.501 961.587 173.501 974.327C205.301 986.617 241.671 994.997 294.891 997.327C348.111 999.657 365.241 1000.2 500.981 999.937C636.721 999.677 653.811 999.077 707.141 996.547C760.471 994.017 796.601 985.497 828.381 973.077C861.251 960.217 889.121 943.077 916.831 915.237C944.541 887.397 961.601 859.497 974.311 826.557C986.631 794.757 995.001 758.387 997.311 705.207C999.641 651.837 1000.19 634.797 999.931 499.037C999.671 363.277 999.061 346.257 996.531 292.937C994.001 239.617 985.531 203.407 973.061 171.617C960.211 138.747 943.061 110.917 915.241 83.1669C887.421 55.4169 859.501 38.3669 826.571 25.6869C794.751 13.3769 758.401 4.98688 705.181 2.68688C651.961 0.386881 634.831 -0.203119 499.041 0.0568806C363.251 0.316881 346.251 0.896881 292.921 3.49688ZM298.761 907.377C250.011 905.257 223.541 897.157 205.901 890.377C182.541 881.377 165.901 870.497 148.321 853.087C130.741 835.677 119.941 818.977 110.821 795.667C103.971 778.027 95.7208 751.587 93.4408 702.837C90.9608 650.147 90.4408 634.327 90.1508 500.837C89.8608 367.347 90.3708 351.547 92.6808 298.837C94.7608 250.127 102.911 223.627 109.681 205.997C118.681 182.607 129.521 165.997 146.971 148.427C164.421 130.857 181.071 120.037 204.401 110.917C222.021 104.037 248.461 95.8569 297.191 93.5369C349.921 91.0369 365.721 90.5369 499.191 90.2469C632.661 89.9569 648.501 90.4569 701.251 92.7769C749.961 94.8969 776.471 102.967 794.081 109.777C817.451 118.777 834.081 129.587 851.651 147.067C869.221 164.547 880.051 181.137 889.171 204.517C896.061 222.087 904.241 248.517 906.541 297.277C909.051 350.007 909.621 365.817 909.861 499.277C910.101 632.737 909.631 648.587 907.321 701.277C905.191 750.027 897.111 776.507 890.321 794.167C881.321 817.517 870.471 834.167 853.011 851.727C835.551 869.287 818.921 880.107 795.581 889.227C777.981 896.097 751.511 904.297 702.821 906.617C650.091 909.097 634.291 909.617 500.771 909.907C367.251 910.197 351.501 909.657 298.771 907.377M706.371 232.767C706.391 244.635 709.929 256.23 716.54 266.086C723.15 275.943 732.535 283.617 743.507 288.14C754.479 292.662 766.546 293.829 778.182 291.493C789.817 289.157 800.498 283.422 808.875 275.015C817.251 266.608 822.946 255.906 825.24 244.262C827.533 232.618 826.322 220.555 821.759 209.6C817.197 198.644 809.488 189.287 799.607 182.713C789.727 176.139 778.118 172.643 766.251 172.667C750.341 172.699 735.096 179.048 723.867 190.318C712.637 201.589 706.344 216.857 706.371 232.767ZM243.271 500.497C243.551 642.297 358.711 756.987 500.481 756.717C642.251 756.447 757.021 641.297 756.751 499.497C756.481 357.697 641.291 242.977 499.501 243.257C357.711 243.537 243.001 358.717 243.271 500.497ZM333.331 500.317C333.266 467.353 342.977 435.11 361.237 407.665C379.496 380.22 405.484 358.806 435.914 346.131C466.344 333.456 499.849 330.089 532.193 336.456C564.536 342.823 594.265 358.638 617.62 381.901C640.976 405.164 656.908 434.83 663.403 467.148C669.898 499.466 666.664 532.984 654.109 563.464C641.555 593.944 620.244 620.016 592.872 638.385C565.499 656.753 533.295 666.592 500.331 666.657C478.443 666.703 456.76 662.437 436.521 654.102C416.282 645.767 397.883 633.526 382.375 618.08C366.867 602.633 354.554 584.283 346.139 564.077C337.724 543.871 333.371 522.205 333.331 500.317Z" />
</svg>