<svg viewBox="0 0 472 200" xmlns="http://www.w3.org/2000/svg">
  <path
    d="M471.687 43.3407C471.601 42.9292 471.444 42.1636 468.065 42.4748C466.503 42.5867 464.831 42.6714 463.354 42.7078C462.096 42.7508 460.8 42.7287 459.546 42.7065C458.981 42.6961 458.415 42.6857 457.861 42.6818C453.926 42.6193 450.004 42.9006 446.199 43.1818L442.227 43.4058C439.052 43.5633 435.768 43.7287 432.525 43.7014C431.896 43.6909 431.265 43.6779 430.635 43.6636C428.866 43.6219 427.033 43.5829 425.227 43.6389C423.464 43.6922 421.683 43.8159 419.961 43.9344C418.089 44.0634 416.152 44.1975 414.242 44.2391C412.59 44.2938 410.902 44.2652 409.269 44.2352C407.861 44.2105 406.405 44.1857 404.961 44.2131C403.815 44.2352 402.669 44.2938 401.523 44.3537L400.34 44.4136C396.842 44.5816 393.27 44.5686 389.82 44.5529C387.969 44.5464 386.12 44.5373 384.274 44.5569C382.971 44.5686 381.658 44.5204 380.381 44.4774L380.127 44.4683C377.576 44.3524 377.115 44.6272 376.828 44.9384L376.525 45.3173L376.575 45.7131C376.582 45.7861 379.72 52.8618 381.158 52.8618C381.874 52.8852 393.886 54.1899 395.77 54.4504C396.136 54.4959 396.864 54.5832 397.772 54.69C400.22 54.9816 403.919 55.4204 405.281 55.6483C406.095 55.7889 407.098 55.9152 408.165 56.0507C410.292 56.3189 412.694 56.621 414.255 57.134C414.47 57.4465 414.827 58.5091 415.143 59.4518L415.517 60.5547C416.525 63.3543 417.251 65.5288 417.869 67.607C418.528 69.8505 419.051 72.1058 419.433 73.8038C420.028 76.7088 420.762 79.6282 421.472 82.4538C422.632 87.0737 424.982 98.7498 425.593 103.526C425.74 104.693 425.879 105.376 425.99 105.927C426.159 106.759 426.27 107.309 426.3 109.012C426.288 109.662 425.029 113.322 424.276 115.508C423.597 117.489 423.206 118.633 423.108 119.103C423.025 119.502 423.112 119.875 423.353 120.157C423.684 120.545 424.149 120.588 424.325 120.588C424.343 120.588 424.358 120.588 424.37 120.588C424.417 120.588 429.135 120.532 430.002 120.552C432.601 120.58 435.209 120.573 437.811 120.571C439.744 120.566 441.679 120.564 443.609 120.572L444.661 120.58C445.449 120.586 446.241 120.595 447.023 120.571C448.19 120.537 449.583 120.366 450.001 119.334C450.415 118.312 449.501 117.374 449.187 117.052C448.327 116.203 447.383 115.418 446.471 114.66C445.85 114.143 445.233 113.629 444.634 113.09C444.031 112.561 443.274 111.848 442.759 111.003C442.035 109.863 441.789 108.49 441.53 107.036C441.453 106.605 441.376 106.176 441.29 105.772C440.971 104.061 440.427 102.401 439.901 100.795C439.522 99.6404 437.981 91.5465 437.69 90.3785C437.434 89.3198 437.287 88.2521 437.13 87.1232C437.052 86.5659 436.975 86.0098 436.885 85.459C436.671 84.1101 435.982 80.8521 435.253 77.4028C434.352 73.1371 433.33 68.3023 433.038 66.2645C432.952 65.7554 432.853 65.2462 432.747 64.7553C432.68 64.4064 432.597 64.0522 432.514 63.698C432.21 62.4063 431.925 61.1849 432.38 60.1758C433.006 58.845 435.091 58.0195 436.765 57.3567C437.255 57.1627 437.721 56.9765 438.11 56.802C439.471 56.2408 440.835 55.6457 442.204 55.0506C444.966 53.8488 447.817 52.6079 450.665 51.643C455.223 50.0036 459.867 48.4281 464.893 46.816L466.274 46.303C467.507 45.8433 468.767 45.372 469.956 44.9709C470.727 44.7092 471.894 44.316 471.687 43.3407Z" />
  <path
    d="M75.2285 97.8121C74.9107 97.2261 74.61 96.6714 74.442 96.1037C74.1698 95.174 73.9368 94.2364 73.7037 93.2989C73.3248 91.7715 72.9328 90.1907 72.369 88.6451C71.4159 86.0279 70.3833 82.9119 69.9614 79.6644C69.5174 76.2489 68.8481 72.7541 67.8572 68.668C67.5993 67.6029 67.486 66.5078 67.3663 65.3502C67.2582 64.3124 67.1462 63.2395 66.9222 62.1795C66.5863 60.5988 66.2751 59.0206 65.9613 57.4398L65.6475 55.859C64.7855 51.5581 62.456 42.7519 62.4377 42.6816C61.0223 36.8624 59.547 31.0471 58.5574 27.1798C58.2384 25.9298 57.8959 24.685 57.5522 23.4428C57.2709 22.418 56.9884 21.3932 56.7188 20.3658C56.629 20.0195 56.573 19.5351 56.5118 19.0221C56.4063 18.1041 56.2956 17.1561 55.9389 16.4452C54.9518 14.4907 52.371 14.9269 50.4882 15.2459C49.8853 15.3475 49.3176 15.4438 48.897 15.4543C48.1066 15.4751 47.2941 15.4647 46.475 15.4517C44.8656 15.4295 43.2067 15.4022 41.6142 15.6235C40.01 15.8475 39.3121 16.229 39.1324 18.0077C38.9253 20.0664 39.5191 22.4206 40.0439 24.4988C40.1467 24.9037 40.2457 25.2983 40.3342 25.672C40.6663 27.0744 41.0322 28.465 41.3981 29.8557C42.139 32.6787 42.9059 35.5968 43.3421 38.52C43.7367 41.1659 44.1768 43.804 44.6156 46.4421L44.8213 47.6882C44.8786 48.0255 44.9034 48.3666 44.9294 48.7065C44.9646 49.1518 44.9997 49.5958 45.0831 50.0386C45.1143 50.2052 45.1495 50.3537 45.1846 50.4839C45.1443 50.4943 45.1026 50.5073 45.057 50.5204C43.6286 50.9318 41.7562 51.2456 39.3355 51.4826C38.3277 51.5803 37.3237 51.7626 36.3524 51.9397C35.1062 52.1662 33.9291 52.3811 32.7403 52.4332C32.3978 52.4488 31.9824 52.4905 31.5345 52.536C30.5762 52.635 29.1295 52.7821 28.6021 52.5478C27.774 52.1766 26.9185 51.5542 26.0122 50.8928C25.27 50.3524 24.5018 49.7938 23.7218 49.3641C23.1411 49.0451 22.5369 48.6961 21.9171 48.338C19.0902 46.7064 15.8856 44.8561 12.7254 44.4616L12.5743 44.4434C9.58858 44.067 5.50383 43.554 2.64959 45.4825C-0.545815 47.6466 -0.0991886 52.3238 0.227644 55.7379C0.288843 56.3747 0.346134 56.9789 0.376083 57.5258C0.544057 60.505 1.00892 63.5103 1.45815 66.4153C1.97248 69.737 2.50375 73.172 2.57667 76.525C2.5962 77.4039 4.27984 87.6308 5.41529 91.4278L5.7916 92.6713C6.42313 94.7482 7.07549 96.8967 7.45571 99.0387L7.51561 99.3902C7.71744 100.608 7.99609 102.274 9.1693 103.123C10.5626 104.13 13.0093 103.737 14.2228 103.25C14.9768 102.948 15.7046 102.621 16.4312 102.294C17.6969 101.726 18.8922 101.191 20.1996 100.79C20.7412 100.625 21.2816 100.472 21.8194 100.323C22.6293 100.095 23.4353 99.8681 24.2466 99.5973C24.4432 99.5296 24.6958 99.4775 24.9653 99.4189C25.8273 99.2327 26.9003 98.9983 27.5097 98.2782C29.0227 96.4891 27.6138 93.8432 26.5826 91.9108C26.3547 91.4811 26.1476 91.0983 26.0161 90.7858C25.1932 88.8548 24.4979 86.83 23.8247 84.8703C23.589 84.1854 23.3533 83.5005 23.1111 82.8155C22.7725 81.8546 22.3741 80.9197 21.9874 80.0134C21.6098 79.1292 21.2204 78.2151 20.9001 77.3063C20.5668 76.3622 20.2191 75.4247 19.8727 74.4885C18.6995 71.323 17.5914 68.3321 17.0107 65.1067C16.4052 61.7511 15.2137 56.9281 12.9741 53.0035C12.823 52.7379 12.6694 52.4735 12.5131 52.2092C11.991 51.3225 11.4897 50.4696 11.1472 49.5763C11.7006 49.756 12.534 50.0998 13.784 50.7274L13.9377 50.8042C14.3739 51.023 14.801 51.2743 15.2294 51.5256C15.9716 51.9618 16.7398 52.4123 17.5836 52.7274C19.6566 53.5022 21.4418 54.3017 23.4132 55.6794L23.6489 55.8447C26.218 57.639 28.873 59.4946 31.222 61.5207C36.4057 65.9934 39.8629 72.0457 43.2067 77.8987C44.0114 79.305 44.8135 80.7113 45.6378 82.0942C49.0246 87.7766 52.0286 94.0099 54.8412 101.196C55.5886 103.105 56.435 105.268 58.0301 106.859C58.672 107.497 59.4494 107.706 60.2306 107.706C61.1096 107.706 61.9924 107.441 62.6877 107.234L63.0341 107.131C64.4339 106.729 65.8779 106.588 67.4079 106.44C67.8546 106.396 68.2999 106.351 68.7452 106.302L69.4796 106.221C70.757 106.081 72.0773 105.936 73.386 105.696C73.494 105.677 73.6321 105.669 73.7753 105.659C74.1243 105.636 74.5201 105.608 74.8534 105.476C75.9147 105.064 76.0397 104.489 76.1009 103.725L76.1894 102.866C76.3118 101.845 76.4512 100.688 76.067 99.5829C75.8444 98.9475 75.5319 98.3694 75.2285 97.8121Z" />
  <path
    d="M233.989 122.597L233.991 122.596C235.251 121.836 235.738 120.382 235.358 118.499C235.125 117.341 234.803 116.193 234.493 115.081C234.349 114.559 234.203 114.038 234.067 113.518L208.233 14.6732C208.176 14.4544 208.124 14.2292 208.072 14.0039C207.925 13.3724 207.772 12.7174 207.504 12.0924C206.876 10.6249 205.423 9.39441 203.871 9.87098C201.988 10.4504 202.04 12.7031 202.072 14.0495C202.074 14.2292 202.079 14.3985 202.078 14.5482C202.026 20.8778 203.646 27.0538 205.211 33.0279L205.318 33.4355C206.056 36.2532 206.892 39.446 207.485 42.6414L207.62 43.3537C208.089 45.7965 208.672 48.8369 207.289 50.781C206.132 52.406 203.883 53.0337 201.625 53.4686L201.1 53.5727C200.039 53.7876 198.941 54.0102 198.038 53.811C197.168 53.617 196.687 52.6183 196.223 51.6534L196.112 51.4242C193.194 45.4202 190.517 39.1986 188.156 32.9328C187.574 31.3924 187.011 29.8468 186.463 28.2947C186.27 27.7465 185.811 27.2973 185.261 27.1202C184.77 26.9639 184.247 27.042 183.829 27.3337C181.901 28.6814 181.24 31.0005 181.864 34.2271C182.063 35.2558 182.355 36.2676 182.636 37.2441C182.739 37.5983 182.841 37.9538 182.938 38.308L199.533 98.6027C200.238 101.168 200.932 103.74 201.626 106.311C204.163 115.716 206.787 125.442 210.024 134.804C211.132 138.004 212.21 140.858 213.323 143.528C213.868 144.838 214.933 146.131 216.372 146.131C216.534 146.131 216.702 146.114 216.874 146.079C217.537 145.945 218.063 145.596 218.394 145.07C218.956 144.179 218.829 143.009 218.622 142.185C217.105 136.144 215.55 130.111 213.996 124.079L213.869 123.581C212.272 117.384 210.664 111.19 209.044 104.999C208.759 103.906 208.462 102.812 208.167 101.717C206.86 96.8813 205.509 91.8811 205.008 86.8745C204.857 85.3757 204.793 83.8783 204.817 82.4264C204.901 77.7922 204.777 74.2686 204.417 70.999C204.254 69.5354 204.149 68.1278 204.632 66.9703C204.939 66.2293 205.538 65.5549 206.318 65.0666C207.927 64.0626 209.977 63.9428 211.414 64.7775C213.427 65.9416 214.399 68.3336 215.149 70.7425C215.853 73.0134 216.493 75.3559 217.111 77.6203C217.392 78.6529 217.674 79.6842 217.963 80.7115L223.811 101.571C224.106 102.63 224.396 103.689 224.688 104.749C225.4 107.353 226.139 110.047 226.963 112.672C228.283 116.874 229.77 119.832 231.785 122.265C232.285 122.873 233.274 123.023 233.989 122.597Z" />
  <path
    d="M282.758 75.0954C282.724 74.5615 282.375 73.9495 281.94 73.3831C281.092 72.2789 279.945 71.443 278.665 70.8922C271.267 67.7059 256.257 60.3229 254.442 66.2137C254.017 67.5913 253.47 68.8999 253.168 70.2828C252.757 72.1682 252.125 76.9653 251.405 78.5083C249.793 81.9537 247.203 84.8001 244.679 87.6426C244.547 87.7911 244.449 87.9447 244.348 88.0984L243.469 88.6817C243.064 88.9526 242.112 89.5854 242.099 90.6531C242.094 91.2026 242.348 91.6493 242.516 91.9422C243.443 93.5751 244.876 96.751 246.393 100.112C250.263 108.691 253.155 114.857 255.115 116.06C256.092 116.66 257.144 117.056 258.161 117.439C258.846 117.697 259.493 117.94 260.113 118.24C261.101 118.718 262.021 119.334 262.997 119.986C264.615 121.071 266.289 122.19 268.298 122.623C268.423 122.649 268.632 122.693 268.88 122.693C269.123 122.693 269.404 122.65 269.671 122.503C270.123 122.261 270.341 121.845 270.455 121.625C271.52 119.62 272.095 117.427 272.649 115.307L272.709 115.076C273.981 110.214 275.444 105.096 278.065 100.681C278.392 100.133 278.737 99.5857 279.084 99.0375C279.979 97.626 280.881 96.1819 281.504 94.6415C281.92 94.2379 282.236 93.6728 282.359 92.9058C283.324 86.9525 283.144 81.093 282.758 75.0954ZM268.118 91.4357L263.243 92.1245C262.18 92.2717 261.322 92.3641 260.71 92.0529C259.889 91.6415 259.484 90.4292 259.29 89.4838C258.683 86.5437 259.04 83.429 260.294 80.7102L260.296 80.7089C260.497 80.27 260.749 79.7804 261.092 79.4718C261.769 78.8637 262.965 78.7882 264.245 78.7609C264.386 78.757 264.533 78.7518 264.679 78.7518C265.032 78.7518 265.382 78.7752 265.641 78.882C266.014 79.0304 266.369 79.4224 266.701 79.8234C267.91 81.2818 269.397 83.6035 269.625 86.3796C269.931 90.1688 268.832 91.3381 268.118 91.4357Z" />
  <path
    d="M179.34 102.193C177.222 103.082 175.272 104.327 173.387 105.53C172.762 105.928 172.137 106.327 171.509 106.711C169.141 108.159 166.573 109.361 164.087 110.522L163.197 110.94C161.047 111.949 158.92 113.06 156.866 114.133C156.114 114.525 155.362 114.918 154.607 115.306C153.349 115.955 152.073 116.571 150.798 117.185C149.255 117.929 147.657 118.698 146.112 119.521C145.339 119.93 144.545 120.274 143.705 120.64C142.722 121.064 141.706 121.504 140.739 122.056C139.973 122.494 139.115 123.033 138.649 123.907C138.292 124.576 138.519 125.394 139.165 125.773C140.867 126.767 142.95 125.876 144.47 125.221C144.777 125.089 145.069 124.963 145.335 124.862L145.933 124.637C147.002 124.237 148.067 123.839 149.122 123.395C150.291 122.904 151.617 122.348 152.94 122.034C154.008 121.783 156.035 121.515 157.638 122.566C158.772 123.31 159.456 124.692 159.513 126.355C159.555 127.566 159.269 128.803 158.999 129.868C158.631 131.314 158.156 132.761 157.695 134.109L157.302 135.252C156.961 136.238 156.621 137.221 156.311 138.217L156.173 138.683C155.999 139.287 155.832 139.858 155.535 140.299C155.138 140.888 154.371 141.247 153.608 141.604C152.31 142.212 150.951 142.885 149.451 143.662C148.323 144.248 147.2 144.847 146.078 145.445C144.526 146.272 142.975 147.1 141.404 147.894C140.382 148.411 139.355 148.919 138.326 149.426C136.343 150.404 134.293 151.417 132.305 152.495C129.998 153.745 127.733 155.034 125.569 156.281C125.808 154.999 126.162 153.723 126.53 152.396C126.905 151.036 127.297 149.631 127.551 148.207C128.354 143.705 129.036 139.953 129.865 136.082C130.476 133.23 131.012 130.317 131.528 127.498C132.435 122.563 133.373 117.459 134.743 112.565C135.191 110.969 135.698 109.158 136.122 107.359L136.201 107.014C136.498 105.738 136.804 104.422 137.433 103.366C140.27 101.91 142.889 100.071 145.423 98.2927C147.057 97.1442 148.746 95.958 150.463 94.8994C151.161 94.4684 151.864 94.0452 152.566 93.6207C154.317 92.566 156.129 91.4722 157.851 90.2742L158.448 89.8576C159.392 89.1961 160.37 88.5125 161.357 87.9031C162.503 87.1973 163.557 86.6127 164.835 86.6127H164.856C166.001 86.6179 167.203 86.8679 168.365 87.1101L168.681 87.1752C169.854 87.4174 170.886 87.7078 171.832 88.0659C173.826 88.8146 175.681 90.0347 177.345 91.6883C177.477 91.8199 177.637 92.0204 177.822 92.2483C178.56 93.1637 179.592 94.3903 180.806 94.3916C181.215 94.3837 181.81 94.2275 182.33 93.5322C182.799 92.9019 183.09 91.829 181.817 90.2899C181.312 89.6831 180.757 89.1115 180.222 88.5607C179.999 88.3315 179.777 88.1023 179.56 87.8718C178.438 86.683 177.289 85.5215 176.141 84.36C174.934 83.1412 173.728 81.9225 172.554 80.6698C170.546 78.5317 168.402 76.128 165.81 73.1071C165.408 72.637 164.673 72.5185 164.103 72.8337C161.322 74.3858 158.871 76.4314 156.501 78.4106L155.713 79.0656C154.5 80.0747 153.079 81.2375 151.579 82.2662C150.77 82.8209 149.945 83.3522 149.121 83.8821C148.352 84.377 147.583 84.8731 146.828 85.3848C143.667 87.5268 140.649 89.7274 137.312 92.1753L135.887 93.2288C133.459 95.0257 130.948 96.8851 128.323 98.4451C126.339 99.6248 124.254 100.729 122.24 101.797C121.078 102.411 119.918 103.027 118.767 103.659C117.303 104.463 115.857 105.328 114.38 106.217C113.072 107.006 111.782 107.997 111.216 109.898C111.012 110.585 110.887 111.275 110.764 111.943C110.601 112.843 110.446 113.692 110.117 114.479C109.383 116.239 108.681 118.009 107.991 119.787C107.647 120.672 107.297 121.555 106.948 122.439C105.915 125.042 104.849 127.734 103.971 130.459C102.675 134.475 101.873 138.084 101.519 141.492C101.441 142.242 101.389 142.993 101.335 143.743C101.26 144.814 101.183 145.919 101.027 146.988C100.786 148.633 100.427 150.41 99.9253 152.419C99.2847 154.979 98.5008 157.559 97.7416 160.05C97.3953 161.19 97.0489 162.328 96.7143 163.472C95.4903 167.65 94.4994 171.168 93.6452 174.757C93.3887 175.835 93.084 177.088 92.6868 178.365C92.3509 179.449 91.9693 180.678 92.0462 181.93C92.1464 183.524 93.192 184.554 94.6335 184.503C95.9291 184.429 96.9773 183.554 97.8198 182.851L97.9747 182.721C99.3393 181.589 100.864 180.706 102.479 179.769C103.698 179.062 104.958 178.331 106.133 177.489C106.548 177.191 106.958 176.89 107.368 176.588C108.42 175.813 109.414 175.081 110.493 174.421C111.282 173.938 112.085 173.475 112.885 173.012C113.633 172.58 114.378 172.149 115.115 171.702C115.872 171.243 116.608 170.753 117.344 170.263C118.151 169.727 118.986 169.172 119.826 168.676C121.229 167.852 122.706 167.082 124.133 166.339L124.526 166.134C126.235 165.244 127.771 164.431 129.289 163.5L130.556 162.718C131.749 161.978 132.982 161.214 134.221 160.516C135.963 159.535 137.774 158.599 139.525 157.694C141.084 156.889 142.64 156.085 144.175 155.238C145.102 154.727 146.026 154.208 146.949 153.687C149.326 152.35 151.785 150.967 154.267 149.75C154.719 149.53 155.192 149.35 155.665 149.169C155.73 149.144 155.797 149.12 155.863 149.094C155.754 149.363 155.634 149.629 155.515 149.889L155.083 150.822C154.72 151.596 154.358 152.371 154.041 153.169C153.39 154.814 152.847 156.513 152.324 158.156C152.015 159.121 151.708 160.087 151.377 161.044C149.652 166.045 147.454 170.842 144.661 175.713C143.212 178.239 141.945 180.025 140.554 181.501C138.779 183.385 136.592 184.756 134.503 185.998C132.401 187.247 130.181 188.389 128.033 189.493C126.345 190.362 124.599 191.259 122.909 192.209C121.447 193.031 119.768 194.013 118.369 195.277C117.35 196.194 116.815 197.095 116.777 197.956C116.75 198.549 116.964 199.109 117.396 199.574C117.654 199.853 118.025 200 118.398 200C118.662 200 118.927 199.927 119.155 199.776C119.258 199.707 119.319 199.663 119.354 199.642C119.399 199.631 119.451 199.625 119.529 199.615C120.264 199.512 121.001 199.319 121.783 199.022C123.229 198.474 124.546 197.726 125.754 197C127.319 196.057 128.888 195.122 130.457 194.187L133.637 192.29C136.846 190.37 140.232 188.627 143.509 186.94C145.691 185.819 147.946 184.657 150.139 183.45C155.691 180.39 159.75 177.396 162.91 174.025C166.307 170.407 168.909 165.868 171.348 159.31C173.558 153.37 174.964 147.237 176.049 142.022C177.422 135.414 178.593 129.458 179.629 123.814C180.231 120.534 180.783 117.283 181.271 114.151C181.472 112.858 181.705 111.567 181.941 110.276C182.258 108.512 182.589 106.689 182.834 104.854C182.928 104.159 183.084 102.995 182.232 102.246C181.258 101.389 179.964 101.932 179.34 102.193Z" />
  <path
    d="M381.648 63.6059C381.268 63.4458 380.846 63.464 380.483 63.6567C378.717 64.5838 377.708 66.4628 376.881 68.3561C375.877 70.653 375.656 71.0619 375.031 73.2117L374.868 73.7729C374.355 75.5477 373.869 76.0737 373.162 77.7014C372.572 79.0569 372.028 80.2679 371.343 81.3655C371.035 81.8577 370.694 82.3421 370.276 82.5609C369.934 82.7367 369.501 82.6351 368.872 82.3955C365.273 81.0179 361.697 79.372 358.239 77.7808C355.118 76.3446 351.89 74.8589 348.633 73.5632C343.711 71.6062 338.937 69.0631 334.32 66.6034C332.384 65.5721 330.446 64.5409 328.493 63.546C326.688 62.628 324.773 61.796 322.921 60.9913C318.809 59.2048 314.567 57.3623 311.223 54.4468C311.778 54.0197 312.564 53.7554 313.292 53.5353C313.752 53.3973 314.211 53.2736 314.671 53.1512C315.537 52.9207 316.433 52.6811 317.313 52.3387C320.123 51.2462 322.845 49.8777 325.479 48.5547C326.562 48.0104 327.647 47.4648 328.738 46.9388C332.789 44.983 336.931 43.1027 340.826 41.3436C341.69 40.9529 342.553 40.5584 343.418 40.1639C346.46 38.7745 349.606 37.337 352.763 36.1091C353.753 35.7236 354.746 35.3473 355.739 34.9697C359.03 33.7223 362.434 32.4319 365.675 30.8264C369.231 29.006 371.069 24.9304 372.274 21.5839C373.586 17.938 374.497 13.7946 375.061 8.9156C375.284 6.98716 375.398 5.39335 375.422 3.89982L375.433 3.50529C375.458 2.74485 375.488 1.8008 375.165 1.01172C374.846 0.230445 374.136 -0.153682 373.394 0.0572613C372.3 0.368468 372.039 1.67841 371.882 2.46099L371.842 2.66019C371.632 3.60293 371.485 4.57561 371.343 5.51704C371.023 7.62127 370.721 9.61091 369.794 11.3688C368.545 13.736 365.986 15.6176 361.973 17.1215C360.756 17.5786 359.525 17.9914 358.297 18.4028C356.278 19.0812 354.19 19.7831 352.176 20.6763C349.43 21.8938 346.741 23.3053 344.138 24.6712C343.344 25.0879 342.55 25.5046 341.753 25.9174C338.354 27.6739 334.898 29.2352 330.754 31.0399L328.928 31.8303C325.8 33.1806 322.563 34.5765 319.484 36.1846C316.29 37.8539 313.481 40.0167 310.403 42.466L309.286 43.3567C307.167 45.0546 304.974 46.8099 302.649 48.237C300.936 49.2878 299.095 50.2839 297.224 50.4571C296.264 50.5496 295.52 50.3308 294.978 49.793C293.88 48.7006 293.491 46.2448 293.82 42.4921L293.905 41.5272C294.079 39.5727 294.259 37.5492 294.324 35.5413L294.332 35.2783C294.395 33.4085 294.466 31.2912 293.762 29.4383C293.417 28.5294 292.926 27.9357 292.263 27.6245C291.612 27.3185 290.88 27.5307 290.514 28.1258C289.233 30.2326 288.828 32.6116 288.437 34.9111L288.396 35.1533C287.931 37.8721 287.583 40.6339 287.275 43.2134L287.131 44.427C286.913 46.2864 286.692 48.1432 286.442 49.9975C286.192 51.8517 285.974 53.6694 286.067 55.5276C286.136 56.9052 286.375 58.8988 287.646 60.3259C288.892 61.7257 290.866 62.27 292.452 62.7075L292.644 62.7609C294.542 63.2856 296.694 63.882 298.736 64.7974C299.926 65.3312 301.098 65.9029 302.268 66.4758C303.461 67.0579 304.654 67.6399 305.865 68.1829C309.114 69.6374 312.362 71.2728 315.503 72.8562C321.226 75.7404 327.145 78.7222 333.38 80.7666C334.816 81.2379 336.284 81.6051 337.703 81.9593C338.699 82.2093 339.697 82.458 340.686 82.7432C343.156 83.4568 345.607 84.4216 347.99 85.3605L348.966 85.7485C350.712 86.4438 352.519 87.1626 354.366 87.7043L354.765 87.8202C355.929 88.1561 357.131 88.5038 358.058 89.1692C359.017 89.858 359.189 90.9257 358.508 91.9557C357.662 93.2357 356.101 94.1107 354.702 94.8295C351.172 96.6472 347.392 98.2033 343.737 99.7085L340.805 100.918C336.608 102.646 332.269 104.435 328.1 106.482C323.567 108.706 318.946 111.243 314.366 114.021C311.757 115.605 309.174 117.307 306.676 118.951C304.766 120.209 302.857 121.467 300.919 122.684C296.814 125.264 292.552 127.754 288.431 130.162L287.048 130.97C282.537 133.607 277.75 136.431 273.158 139.419C269.35 141.9 265.719 144.427 263.185 148.063C261.733 150.146 260.946 152.513 260.183 154.803C259.436 157.043 258.732 159.159 257.457 161.014C256.531 162.36 255.425 163.122 254.163 163.282C253.057 163.423 251.869 163.212 250.717 163.007L250.167 162.91C246.913 162.354 243.165 162.136 240.056 164.73C238.523 166.011 237.442 167.624 236.287 169.449L235.902 170.061C235.497 170.705 235.091 171.35 234.664 171.977L234.502 172.22C234.282 172.553 234.054 172.897 233.744 173.132C233.712 173.131 233.561 173.073 233.324 172.83C233.005 172.504 232.835 172.024 232.654 171.518C232.335 170.615 231.936 169.492 230.562 168.98C230.227 168.852 229.851 168.885 229.524 169.058C229.18 169.239 228.932 169.55 228.844 169.91C228.272 172.237 228.259 175.579 229.941 177.979C230.701 179.064 231.742 179.739 232.953 179.932C233.195 179.971 233.445 179.991 233.699 179.991C235.084 179.989 236.617 179.424 238.014 178.379C239.414 177.328 240.463 176.067 241.304 174.972L241.545 174.655C242.255 173.721 242.989 172.752 243.987 172.44C245.364 172.001 246.866 172.632 248.318 173.241L248.711 173.405C250.387 174.099 251.859 174.42 253.346 174.42C257.456 174.42 260.741 171.998 263.112 167.22C263.757 165.92 264.318 164.542 264.86 163.212C265.961 160.51 267.099 157.715 268.976 155.53C269.779 154.593 270.751 153.869 271.758 153.149C273.23 152.101 274.831 151.054 276.519 150.038C279.678 148.14 283.061 146.426 286.574 144.947C291.767 142.761 296.737 139.944 301.543 137.22C303.754 135.965 306.043 134.669 308.313 133.456C316.366 129.157 324.203 124.222 331.782 119.451C337.807 115.657 344.037 111.736 350.323 108.166C352.104 107.155 353.847 106.197 355.502 105.317C357.23 104.401 359.01 103.776 360.676 103.239C362.193 102.748 363.912 102.192 365.464 101.267C366.137 100.866 366.669 100.388 367.197 99.8947C367.906 99.2319 368.118 99.3843 368.206 99.4455C368.76 99.8387 368.733 101.276 368.717 102.136C368.696 103.399 368.557 104.689 368.292 106.077C368.131 106.926 367.945 107.773 367.759 108.619C367.261 110.887 366.746 113.234 366.692 115.633C366.653 117.312 366.884 118.722 367.397 119.949C367.576 120.372 367.919 120.674 368.338 120.777C368.751 120.877 369.183 120.769 369.529 120.483C371.605 118.755 372.22 115.659 372.714 113.172L372.817 112.659C373.066 111.435 373.299 110.211 373.532 108.989C373.895 107.082 374.27 105.112 374.701 103.185C377.162 92.1276 379.026 83.0479 380.565 74.6075C380.565 74.6075 380.976 72.8041 381.633 70.7598L381.729 70.4603C382.324 68.623 383 66.5396 382.403 64.4601C382.29 64.0747 382.015 63.7622 381.648 63.6059Z" />
  <path
    d="M128.794 56.1263C128.343 54.7812 127.714 53.5156 127.074 52.2682C125.948 50.0702 124.78 47.8982 123.573 45.7536C122.704 44.2093 121.805 42.6663 120.635 41.3955C118.984 39.605 116.883 38.4396 114.819 37.3055C114.109 36.9162 113.386 36.5229 112.61 36.3784C111.708 36.2078 110.786 36.3836 109.888 36.5737C107.985 36.9734 106.093 37.4422 104.205 37.9084C100.765 38.7587 97.1516 39.7079 94.5656 42.3799C92.5616 44.4463 91.4027 47.3227 90.447 50.1782C89.473 53.0924 88.6487 56.1107 88.5133 59.2189C88.3883 62.0796 88.8519 64.9404 89.585 67.6813C90.7491 72.0291 92.6775 76.2584 95.7922 79.1687C98.5761 81.7664 102.199 82.9956 105.783 82.3068C107.563 81.9669 109.358 81.9617 111.142 81.5463C113.329 81.0359 115.455 80.2403 117.569 79.4356C118.439 79.1035 119.319 78.7637 120.099 78.2194C120.956 77.6243 121.664 76.8027 122.352 75.9772C126.981 70.4132 131.502 64.1904 128.794 56.1263ZM120.113 59.5496C120.095 59.9559 119.963 60.3465 119.833 60.728C119.036 63.0536 118.174 65.3714 116.958 67.4561C115.741 69.5434 113.336 72.2739 113.336 72.2739C112.123 73.3299 109.698 73.9537 108.173 73.7518C107.506 73.6646 106.89 73.3273 106.278 73.0187C105.283 72.5174 104.266 72.0786 103.229 71.7036C102.617 71.4796 101.985 71.2752 101.46 70.8598C101.08 70.5616 100.771 70.1671 100.469 69.7739C99.6582 68.7335 98.8482 67.6931 98.0383 66.6514C97.6164 66.1097 97.1907 65.5589 96.9016 64.9182C96.5826 64.2047 96.4497 63.4091 96.3443 62.6187C95.9849 59.9012 95.9432 57.1355 96.2193 54.4049C96.2857 53.7369 96.3768 53.0559 96.6477 52.4531C96.9758 51.7226 97.5435 51.1666 98.0943 50.6301C99.2493 49.5103 100.403 48.3917 101.555 47.2719C101.839 46.9946 102.132 46.712 102.485 46.5636C102.813 46.4255 103.17 46.4099 103.522 46.4151C105.617 46.4438 107.657 47.1183 109.668 47.7836C111.116 48.2667 112.565 48.7472 114.014 49.2277C114.442 49.3709 114.879 49.5194 115.233 49.8202C115.672 50.1926 115.936 50.7577 116.211 51.2929C117.422 53.6419 119.098 55.7201 119.901 58.2787C120.029 58.6902 120.135 59.116 120.113 59.5496Z" />
</svg>