<svg viewBox="0 0 198 200" xmlns="http://www.w3.org/2000/svg">
  <defs>
    <linearGradient id="gradient" gradientTransform="rotate(90)">
      <stop stop-color="var(--color-black)">
        <animate attributeName="offset" from="1" to="0" dur="2s" repeatCount="indefinite" />
      </stop>
      <stop stop-color="var(--color-blue)">
        <animate attributeName="offset" from="1" to="0" dur="2s" repeatCount="indefinite" />
      </stop>
    </linearGradient>
  </defs>
  <g fill="url(#gradient)">
    <path
      d="M81.3152 89.5465C80.971 88.9125 80.6451 88.3143 80.4654 87.6982C80.171 86.6955 79.919 85.6817 79.667 84.6675C79.2579 83.0172 78.833 81.3083 78.2237 79.638C77.1937 76.8095 76.0763 73.4414 75.6225 69.9292C75.1432 66.2399 74.4196 62.4605 73.3468 58.0446C73.068 56.8931 72.9444 55.7106 72.8165 54.4585C72.6992 53.3363 72.5781 52.1785 72.3372 51.0317C71.9756 49.3232 71.6357 47.6164 71.2988 45.9075L70.9593 44.2012C70.0262 39.5516 67.51 30.0319 67.4901 29.9554C65.9609 23.667 64.3645 17.3803 63.2942 13.2006C62.9505 11.8494 62.5796 10.5047 62.2086 9.1603C61.9048 8.05388 61.5994 6.94577 61.3092 5.8351C61.2102 5.46162 61.1494 4.93773 61.0844 4.38239C60.9697 3.39112 60.8503 2.36543 60.4662 1.59893C59.398 -0.514485 56.6098 -0.0445578 54.5729 0.301729C53.9211 0.409652 53.3093 0.515035 52.8529 0.526507C51.9985 0.549026 51.1194 0.537552 50.236 0.52438C48.4957 0.499311 46.7014 0.470415 44.9814 0.708779C43.2478 0.951393 42.4924 1.36524 42.2969 3.28745C42.0764 5.51133 42.7171 8.05644 43.284 10.3024C43.3961 10.7409 43.5019 11.1658 43.5988 11.5707C43.9583 13.0859 44.3543 14.59 44.7477 16.0941C45.5503 19.1453 46.3776 22.2975 46.8496 25.4587C47.275 28.3187 47.7491 31.1697 48.2259 34.0207L48.4349 35.2869C48.4863 35.5967 48.5237 35.9085 48.5471 36.2213C48.5887 36.7859 48.6265 37.3468 48.7319 37.9081C48.7634 38.0899 48.8037 38.2497 48.842 38.3891C48.7969 38.4005 48.7519 38.4137 48.7026 38.4294C47.1602 38.8726 45.1344 39.2142 42.517 39.4708C41.4289 39.5762 40.3428 39.7721 39.2951 39.9629C37.9465 40.208 36.676 40.4396 35.3899 40.4961C35.019 40.5139 34.569 40.559 34.0859 40.6083C33.0492 40.7141 31.4889 40.8738 30.9158 40.6197C30.0231 40.2195 29.0968 39.5469 28.1162 38.8322C27.3135 38.2476 26.4841 37.6425 25.6407 37.1794C25.0136 36.8356 24.3614 36.4579 23.6913 36.0713C20.6359 34.3063 17.1714 32.3072 13.7561 31.8801L13.5942 31.8597C10.3633 31.4552 5.94954 30.8999 2.86482 32.984C-0.588704 35.3222 -0.107723 40.3788 0.245362 44.0686C0.31292 44.7565 0.375801 45.4108 0.409793 46.0023C0.589522 49.2217 1.0909 52.4687 1.57655 55.6095C2.13401 59.2003 2.70761 62.9143 2.78622 66.5365C2.80619 67.4878 4.6277 78.5405 5.85309 82.6462L6.25971 83.9885C6.94548 86.2345 7.64953 88.5573 8.06083 90.873L8.12371 91.2529C8.34423 92.5683 8.64335 94.3694 9.91123 95.2868C11.4175 96.3749 14.0616 95.95 15.3749 95.4236C16.1886 95.0977 16.978 94.7446 17.7603 94.3915C19.1297 93.778 20.4201 93.198 21.8345 92.7638C22.4213 92.5862 23.0034 92.4222 23.586 92.2603C24.4604 92.013 25.3327 91.7699 26.2075 91.4755C26.4213 91.4037 26.6932 91.3476 26.9876 91.2843C27.9186 91.082 29.0785 90.828 29.7375 90.05C31.3721 88.1163 29.8476 85.2568 28.7348 83.168C28.4875 82.7049 28.2623 82.2889 28.1208 81.9515C27.2328 79.8649 26.4795 77.675 25.7533 75.5569C25.4971 74.8172 25.2452 74.0774 24.9822 73.3356C24.6155 72.2993 24.1838 71.2876 23.7657 70.3095C23.3612 69.3514 22.9384 68.3643 22.5921 67.382C22.2322 66.3614 21.8571 65.3472 21.4815 64.3355C20.2132 60.9134 19.015 57.6826 18.3874 54.195C17.7335 50.5686 16.4452 45.3547 14.0233 41.1118C13.8615 40.8262 13.6953 40.5407 13.5266 40.2552C12.987 39.3395 12.4661 38.4566 12.099 37.5359C12.079 37.4862 12.1266 37.4339 12.1772 37.4513C12.775 37.6548 13.6418 38.0219 14.9003 38.6521L15.0643 38.7353C15.5368 38.9716 15.9999 39.2435 16.4609 39.5154C17.2657 39.9879 18.0955 40.4757 19.0082 40.8152C21.2474 41.6514 23.1789 42.5173 25.308 44.0057L25.5621 44.1854C28.3388 46.1234 31.2102 48.1293 33.7485 50.3192C39.3516 55.1532 43.0881 61.6957 46.7014 68.0227C47.5715 69.5426 48.4396 71.0624 49.3297 72.5576C52.9902 78.6981 56.2389 85.4365 59.279 93.2044C60.0884 95.2685 61.0011 97.6046 62.7257 99.3245C63.4183 100.015 64.2592 100.24 65.1022 100.24C66.0531 100.24 67.0087 99.9542 67.7599 99.7316L68.135 99.6194C69.6485 99.1852 71.2087 99.0322 72.8611 98.8729C73.3446 98.8232 73.826 98.776 74.3091 98.722L75.1007 98.6345C76.4833 98.4837 77.9067 98.3265 79.3233 98.0677C79.4401 98.0477 79.5884 98.0388 79.7435 98.0273C80.1212 98.0027 80.5487 97.9734 80.9107 97.8319C82.0571 97.3845 82.1922 96.7637 82.2572 95.9386L82.3541 95.0076C82.4866 93.9059 82.637 92.6537 82.2189 91.4598C81.9806 90.774 81.6436 90.149 81.3152 89.5465Z" />
    <path
      d="M193.848 94.2813C191.559 95.2437 189.453 96.5881 187.416 97.8878C186.739 98.3195 186.062 98.7486 185.383 99.1646C182.827 100.729 180.048 102.029 177.363 103.286L176.399 103.736C174.076 104.828 171.778 106.029 169.555 107.187C168.745 107.612 167.934 108.037 167.115 108.457C165.755 109.157 164.376 109.822 162.996 110.488C161.33 111.29 159.603 112.122 157.933 113.01C157.096 113.453 156.237 113.826 155.331 114.22C154.268 114.681 153.171 115.155 152.125 115.751C151.298 116.225 150.369 116.808 149.866 117.752C149.483 118.474 149.726 119.36 150.426 119.769C152.264 120.843 154.515 119.879 156.156 119.171C156.489 119.029 156.804 118.894 157.094 118.784L157.739 118.541C158.895 118.11 160.046 117.678 161.188 117.199C162.45 116.668 163.884 116.068 165.314 115.729C166.467 115.457 168.66 115.166 170.391 116.302C171.616 117.107 172.356 118.6 172.419 120.399C172.464 121.707 172.156 123.045 171.863 124.196C171.466 125.759 170.951 127.323 170.454 128.78L170.027 130.015C169.658 131.08 169.292 132.144 168.959 133.219L168.808 133.724C168.619 134.377 168.439 134.993 168.12 135.47C167.688 136.108 166.859 136.497 166.036 136.881C164.633 137.538 163.165 138.266 161.544 139.105C160.323 139.739 159.109 140.386 157.897 141.034C156.219 141.927 154.544 142.821 152.847 143.681C151.738 144.24 150.628 144.789 149.517 145.335C147.374 146.392 145.159 147.487 143.01 148.652C140.514 150.003 138.068 151.397 135.728 152.746C135.986 151.359 136.371 149.98 136.767 148.546C137.174 147.075 137.594 145.558 137.87 144.017C138.738 139.152 139.473 135.096 140.373 130.912C141.034 127.83 141.612 124.682 142.172 121.633C143.15 116.3 144.161 110.782 145.645 105.494C146.129 103.767 146.677 101.811 147.136 99.8661L147.221 99.4931C147.402 98.7112 147.587 97.9163 147.837 97.1663C148.157 96.2082 148.842 95.4132 149.724 94.9225C152.346 93.4655 154.802 91.7409 157.186 90.0655C158.954 88.8244 160.779 87.543 162.636 86.3983C163.389 85.9309 164.15 85.4746 164.909 85.0157C166.805 83.8757 168.761 82.6954 170.622 81.4003L171.266 80.9486C172.286 80.2335 173.343 79.4938 174.409 78.8373C175.65 78.073 176.79 77.4412 178.17 77.4412H178.193C179.432 77.4475 180.731 77.7173 181.986 77.9782L182.328 78.0479C183.596 78.3109 184.711 78.6257 185.736 79.0103C187.89 79.8218 189.893 81.1394 191.694 82.9269C191.834 83.0688 192.009 83.2868 192.209 83.532C193.007 84.5211 194.12 85.8476 195.436 85.8498C195.876 85.8408 196.519 85.6722 197.079 84.9214C197.587 84.2403 197.902 83.0799 196.526 81.416C195.979 80.7596 195.382 80.1435 194.802 79.5478C194.561 79.2979 194.323 79.0506 194.087 78.8034C192.875 77.5176 191.634 76.2629 190.39 75.0061C189.089 73.6885 187.784 72.3709 186.512 71.0172C184.342 68.7062 182.026 66.1093 179.225 62.8423C178.791 62.3362 177.995 62.2058 177.379 62.5478C174.373 64.2249 171.724 66.4352 169.163 68.5758L168.313 69.2841C167 70.3743 165.465 71.6312 163.841 72.7418C162.969 73.3422 162.076 73.9179 161.186 74.489C160.357 75.0239 159.522 75.5589 158.706 76.1146C155.291 78.4282 152.028 80.8088 148.422 83.4555L146.88 84.5929C144.256 86.5355 141.542 88.5436 138.707 90.2296C136.562 91.5068 134.309 92.7007 132.13 93.8543C130.873 94.5176 129.621 95.1829 128.375 95.8666C126.795 96.7363 125.23 97.6698 123.634 98.6318C122.222 99.4841 120.825 100.557 120.214 102.609C119.993 103.351 119.859 104.098 119.726 104.819C119.551 105.793 119.382 106.71 119.027 107.563C118.233 109.464 117.473 111.378 116.729 113.298C116.356 114.256 115.978 115.212 115.6 116.167C114.485 118.98 113.332 121.889 112.383 124.834C110.984 129.174 110.116 133.077 109.732 136.76C109.649 137.569 109.59 138.383 109.534 139.193C109.453 140.351 109.37 141.545 109.201 142.7C108.94 144.479 108.549 146.399 108.01 148.571C107.319 151.338 106.472 154.127 105.649 156.82C105.276 158.052 104.9 159.282 104.538 160.516C103.216 165.033 102.146 168.838 101.224 172.716C100.945 173.881 100.615 175.236 100.188 176.617C99.8234 177.788 99.4096 179.115 99.495 180.469C99.6029 182.193 100.732 183.306 102.29 183.249C103.69 183.171 104.824 182.224 105.735 181.465L105.903 181.323C107.375 180.102 109.024 179.146 110.771 178.133C112.088 177.368 113.448 176.579 114.721 175.668C115.168 175.346 115.612 175.021 116.054 174.695C117.192 173.858 118.267 173.067 119.431 172.352C120.286 171.83 121.154 171.329 122.019 170.829C122.827 170.364 123.634 169.896 124.427 169.413C125.246 168.916 126.044 168.388 126.838 167.859C127.71 167.279 128.612 166.679 129.522 166.144C131.035 165.251 132.631 164.422 134.176 163.617L134.601 163.396C136.447 162.434 138.109 161.555 139.748 160.548L141.119 159.702C142.41 158.902 143.741 158.077 145.081 157.323C146.961 156.262 148.921 155.25 150.814 154.273C152.496 153.403 154.18 152.532 155.842 151.617C156.842 151.064 157.838 150.504 158.839 149.942C161.406 148.496 164.066 147.001 166.746 145.686C167.236 145.448 167.749 145.252 168.257 145.056C168.329 145.032 168.403 145.005 168.473 144.976C168.354 145.268 168.226 145.556 168.098 145.836L167.63 146.844C167.236 147.683 166.845 148.519 166.506 149.382C165.8 151.161 165.215 152.998 164.648 154.772C164.314 155.815 163.983 156.86 163.626 157.892C161.76 163.297 159.383 168.484 156.363 173.748C154.798 176.48 153.429 178.409 151.925 180.005C150.007 182.042 147.642 183.524 145.385 184.866C143.114 186.215 140.712 187.45 138.392 188.643C136.566 189.583 134.68 190.553 132.852 191.58C131.273 192.468 129.459 193.529 127.944 194.896C126.844 195.888 126.267 196.861 126.226 197.79C126.194 198.433 126.428 199.038 126.894 199.542C127.175 199.843 127.573 200 127.978 200C129.209 200 130.793 199.265 131.636 198.943C133.2 198.352 134.622 197.542 135.928 196.758C137.621 195.739 139.316 194.73 141.011 193.718L144.449 191.667C147.916 189.592 151.577 187.708 155.118 185.885C157.476 184.671 159.916 183.416 162.286 182.112C168.289 178.805 172.675 175.569 176.093 171.924C179.76 168.012 182.572 163.106 185.21 156.019C187.6 149.598 189.117 142.97 190.291 137.331C191.775 130.19 193.043 123.751 194.163 117.651C194.813 114.108 195.408 110.593 195.937 107.207C196.153 105.811 196.407 104.415 196.659 103.018C197.003 101.112 197.36 99.14 197.625 97.1591C197.727 96.4062 197.895 95.1468 196.976 94.34C195.923 93.4133 194.523 94.0005 193.848 94.2813Z" />
    <path
      d="M139.215 44.4886C138.725 43.0338 138.046 41.6669 137.356 40.3179C136.137 37.9436 134.876 35.5939 133.57 33.2761C132.63 31.6076 131.661 29.9395 130.395 28.5658C128.61 26.6296 126.336 25.3706 124.108 24.1452C123.34 23.725 122.562 23.2976 121.721 23.1425C120.747 22.9581 119.751 23.1493 118.778 23.3541C116.722 23.7858 114.677 24.2935 112.637 24.7974C108.916 25.7169 105.013 26.7422 102.216 29.6314C100.051 31.8638 98.7962 34.9736 97.7642 38.0604C96.7121 41.2106 95.8215 44.4729 95.6754 47.8321C95.5407 50.9236 96.0421 54.0151 96.8336 56.9783C98.0926 61.6776 100.177 66.2486 103.543 69.3941C106.553 72.2022 110.468 73.5308 114.342 72.7869C116.266 72.4202 118.204 72.4134 120.133 71.966C122.496 71.4128 124.797 70.5541 127.083 69.6839C128.021 69.324 128.972 68.9577 129.815 68.3688C130.741 67.7255 131.506 66.8375 132.25 65.9448C137.255 59.9326 142.14 53.2032 139.215 44.4886ZM129.831 48.1894C129.81 48.6279 129.669 49.0507 129.53 49.462C128.668 51.9778 127.737 54.4825 126.422 56.7357C125.105 58.9906 122.506 61.9428 122.506 61.9428C121.192 63.0849 118.573 63.7571 116.925 63.5412C116.205 63.4448 111.37 62.357 109.667 60.414C109.325 60.024 108.925 59.6653 108.599 59.24C107.72 58.1162 106.845 56.9919 105.971 55.8655C105.515 55.2788 105.056 54.6852 104.743 53.9926C104.397 53.2214 104.253 52.3602 104.138 51.5057C103.752 48.5693 103.707 45.5789 104.006 42.6267C104.076 41.9053 104.175 41.1702 104.467 40.518C104.822 39.729 107.543 33.9908 111.898 33.9908C114.162 33.9908 116.566 34.2959 118.782 34.8703C123.041 35.9738 125.316 38.6854 125.613 39.2633C126.921 41.8042 128.733 44.0501 129.601 46.8158C129.739 47.2585 129.855 47.7195 129.831 48.1894Z" />
  </g>
</svg>