<svg width="512" height="512" viewBox="0 0 512 512" fill="none" xmlns="http://www.w3.org/2000/svg">
   <rect width="512" height="512" fill="white" />
   <path
      d="M220.516 235.17C219.82 233.888 219.16 232.677 218.797 231.431C218.201 229.402 217.691 227.351 217.182 225.299C216.354 221.96 215.494 218.503 214.261 215.123C212.178 209.401 209.917 202.586 208.999 195.481C208.029 188.016 206.565 180.37 204.394 171.436C203.831 169.106 203.58 166.714 203.322 164.18C203.084 161.91 202.839 159.567 202.352 157.247C201.62 153.791 200.933 150.337 200.251 146.88L199.564 143.428C197.676 134.021 192.586 114.76 192.545 114.606C189.451 101.883 186.222 89.1637 184.056 80.7075C183.361 77.9738 182.61 75.253 181.86 72.5331C181.245 70.2946 180.627 68.0527 180.04 65.8056C179.84 65.05 179.717 63.99 179.585 62.8665C179.353 60.861 179.112 58.7858 178.334 57.235C176.173 52.9591 170.532 53.9099 166.411 54.6105C165.093 54.8289 163.855 55.0421 162.931 55.0653C161.203 55.1108 159.424 55.0876 157.637 55.061C154.116 55.0103 150.486 54.9518 147.006 55.4341C143.498 55.9249 141.97 56.7622 141.575 60.6512C141.128 65.1506 142.425 70.2998 143.571 74.8439C143.798 75.731 144.012 76.5906 144.208 77.4099C144.936 80.4754 145.737 83.5185 146.533 86.5616C148.157 92.7347 149.83 99.1124 150.786 105.508C151.646 111.294 152.605 117.063 153.57 122.831L153.993 125.392C154.097 126.019 154.173 126.65 154.22 127.283C154.304 128.425 154.381 129.56 154.594 130.696C154.657 131.063 154.739 131.387 154.816 131.669C154.725 131.692 154.634 131.719 154.534 131.75C151.414 132.647 147.315 133.338 142.02 133.857C139.818 134.07 137.621 134.467 135.501 134.853C132.773 135.349 130.202 135.817 127.6 135.932C126.85 135.968 125.939 136.059 124.962 136.159C122.864 136.373 119.708 136.696 118.548 136.182C116.742 135.372 114.868 134.011 112.884 132.565C111.26 131.382 109.582 130.158 107.876 129.221C106.607 128.526 105.287 127.762 103.932 126.979C97.7501 123.408 90.7405 119.364 83.8308 118.5L83.5032 118.459C76.9665 117.64 68.0366 116.517 61.7956 120.733C54.8084 125.464 55.7816 135.694 56.4959 143.159C56.6326 144.551 56.7598 145.875 56.8286 147.072C57.1922 153.585 58.2066 160.155 59.1892 166.509C60.317 173.774 61.4775 181.288 61.6366 188.616C61.677 190.541 65.3623 212.903 67.8415 221.21L68.6641 223.925C70.0516 228.469 71.476 233.169 72.3081 237.854L72.4354 238.622C72.8815 241.284 73.4867 244.928 76.0519 246.784C79.0993 248.985 84.4488 248.126 87.106 247.061C88.7522 246.401 90.3494 245.687 91.932 244.973C94.7026 243.731 97.3134 242.558 100.175 241.679C101.362 241.32 102.54 240.988 103.719 240.661C105.488 240.16 107.253 239.669 109.023 239.073C109.455 238.928 110.005 238.814 110.601 238.686C112.484 238.277 114.831 237.763 116.164 236.189C119.471 232.277 116.387 226.491 114.136 222.265C113.635 221.328 113.18 220.487 112.893 219.804C111.097 215.582 109.573 211.152 108.104 206.867C107.585 205.37 107.075 203.873 106.543 202.372C105.801 200.276 104.928 198.229 104.082 196.25C103.264 194.311 102.408 192.315 101.708 190.327C100.98 188.262 100.221 186.21 99.4607 184.163C96.8947 177.24 94.4705 170.703 93.2008 163.647C91.8779 156.31 89.2714 145.762 84.3715 137.177C84.044 136.6 83.7078 136.022 83.3666 135.444C82.2748 133.592 81.2209 131.805 80.4782 129.943C80.4378 129.842 80.534 129.736 80.6363 129.771C81.8459 130.183 83.5995 130.926 86.1458 132.201L86.4776 132.369C87.4335 132.847 88.3705 133.397 89.3032 133.948C90.9314 134.903 92.6103 135.89 94.4568 136.577C98.9871 138.269 102.895 140.021 107.203 143.032L107.717 143.396C113.334 147.317 119.144 151.375 124.279 155.806C135.615 165.586 143.175 178.822 150.486 191.623C152.246 194.698 154.002 197.773 155.803 200.798C163.209 213.222 169.782 226.855 175.933 242.571C177.57 246.747 179.417 251.473 182.906 254.953C184.307 256.35 186.008 256.805 187.714 256.805C189.638 256.805 191.571 256.227 193.091 255.777L193.85 255.55C196.912 254.671 200.069 254.362 203.412 254.039C204.39 253.939 205.364 253.843 206.342 253.734L207.943 253.557C210.74 253.252 213.62 252.934 216.486 252.41C216.723 252.37 217.023 252.352 217.336 252.329C218.101 252.279 218.965 252.219 219.698 251.933C222.017 251.028 222.29 249.772 222.422 248.103L222.618 246.219C222.886 243.99 223.19 241.457 222.345 239.041C221.862 237.654 221.181 236.389 220.516 235.17Z"
      fill="black" />
   <path
      d="M448.193 244.75C443.562 246.697 439.3 249.417 435.179 252.046C433.809 252.92 432.44 253.788 431.066 254.629C425.894 257.796 420.272 260.425 414.84 262.968L412.889 263.877C408.189 266.088 403.54 268.518 399.042 270.86C397.404 271.72 395.762 272.58 394.106 273.431C391.354 274.846 388.565 276.192 385.773 277.538C382.402 279.162 378.908 280.845 375.528 282.642C373.836 283.538 372.098 284.293 370.265 285.089C368.114 286.022 365.894 286.982 363.779 288.187C362.105 289.147 360.226 290.325 359.207 292.235C358.433 293.696 358.925 295.488 360.34 296.316C364.061 298.49 368.614 296.539 371.935 295.106C372.608 294.819 373.245 294.547 373.831 294.323L375.137 293.833C377.475 292.959 379.804 292.086 382.116 291.117C384.667 290.043 387.569 288.829 390.463 288.142C392.796 287.592 397.232 287.004 400.734 289.301C403.213 290.93 404.71 293.95 404.837 297.59C404.928 300.237 404.305 302.944 403.713 305.273C402.909 308.434 401.867 311.6 400.861 314.548L399.997 317.045C399.251 319.201 398.51 321.353 397.837 323.528L397.532 324.551C397.149 325.87 396.785 327.117 396.14 328.081C395.266 329.373 393.587 330.16 391.922 330.938C389.084 332.266 386.114 333.74 382.834 335.437C380.364 336.719 377.908 338.029 375.456 339.339C372.062 341.145 368.673 342.956 365.239 344.694C362.996 345.826 360.749 346.936 358.502 348.041C354.167 350.179 349.686 352.395 345.338 354.752C340.288 357.485 335.339 360.306 330.603 363.035C331.127 360.229 331.904 357.44 332.705 354.538C333.529 351.563 334.379 348.492 334.939 345.376C336.695 335.532 338.182 327.326 340.002 318.86C341.339 312.624 342.508 306.255 343.641 300.087C345.62 289.297 347.666 278.134 350.668 267.435C351.647 263.941 352.756 259.984 353.685 256.049L353.858 255.294C354.224 253.712 354.598 252.104 355.104 250.587C355.75 248.648 357.135 247.04 358.922 246.047C364.225 243.099 369.194 239.61 374.018 236.22C377.594 233.709 381.288 231.117 385.044 228.801C386.569 227.855 388.106 226.932 389.643 226.003C393.478 223.697 397.436 221.309 401.202 218.689L402.504 217.775C404.569 216.328 406.706 214.832 408.862 213.503C411.373 211.957 413.68 210.679 416.473 210.679H416.518C419.025 210.692 421.655 211.237 424.192 211.765L424.884 211.906C427.45 212.438 429.706 213.075 431.78 213.853C436.138 215.495 440.191 218.161 443.835 221.777C444.117 222.065 444.471 222.506 444.876 223.002C446.491 225.003 448.743 227.687 451.404 227.691C452.296 227.673 453.596 227.332 454.729 225.813C455.758 224.435 456.395 222.087 453.61 218.721C452.505 217.392 451.295 216.146 450.122 214.941C449.634 214.435 449.153 213.935 448.675 213.435C446.223 210.833 443.712 208.295 441.196 205.752C438.563 203.086 435.924 200.421 433.349 197.682C428.96 193.006 424.275 187.752 418.606 181.142C417.729 180.118 416.119 179.855 414.872 180.547C408.79 183.94 403.431 188.411 398.25 192.742L396.531 194.175C393.874 196.381 390.767 198.924 387.483 201.171C385.718 202.386 383.912 203.551 382.11 204.706C380.432 205.788 378.744 206.87 377.094 207.995C370.184 212.676 363.583 217.492 356.287 222.847L353.166 225.148C347.857 229.078 342.367 233.141 336.63 236.552C332.291 239.136 327.733 241.552 323.325 243.886C320.782 245.228 318.249 246.574 315.728 247.957C312.53 249.717 309.364 251.605 306.135 253.551C303.278 255.276 300.453 257.446 299.216 261.599C298.77 263.1 298.498 264.61 298.228 266.07C297.874 268.04 297.533 269.896 296.814 271.62C295.209 275.468 293.671 279.34 292.165 283.225C291.41 285.162 290.646 287.096 289.881 289.029C287.626 294.72 285.292 300.606 283.372 306.565C280.543 315.344 278.787 323.241 278.009 330.692C277.84 332.33 277.723 333.977 277.608 335.614C277.445 337.957 277.276 340.373 276.935 342.711C276.407 346.308 275.617 350.193 274.525 354.588C273.128 360.187 271.413 365.828 269.748 371.277C268.993 373.77 268.233 376.258 267.501 378.756C264.826 387.894 262.661 395.592 260.795 403.438C260.232 405.795 259.563 408.538 258.699 411.331C257.962 413.701 257.125 416.385 257.298 419.123C257.516 422.612 259.8 424.864 262.952 424.75C265.786 424.591 268.078 422.675 269.921 421.138L270.262 420.851C273.241 418.381 276.576 416.448 280.111 414.397C282.776 412.85 285.528 411.253 288.103 409.411C289.008 408.76 289.905 408.101 290.8 407.442C293.102 405.749 295.276 404.148 297.633 402.702C299.361 401.646 301.118 400.632 302.869 399.622C304.502 398.68 306.135 397.734 307.74 396.756C309.396 395.751 311.011 394.682 312.617 393.613C314.382 392.439 316.206 391.225 318.048 390.142C321.11 388.336 324.339 386.657 327.465 385.029L328.324 384.583C332.059 382.636 335.421 380.857 338.736 378.82L341.511 377.109C344.123 375.49 346.815 373.82 349.527 372.296C353.33 370.15 357.296 368.102 361.127 366.124C364.529 364.363 367.937 362.603 371.298 360.751C373.322 359.632 375.337 358.5 377.362 357.362C382.557 354.437 387.938 351.412 393.361 348.751C394.352 348.269 395.389 347.874 396.417 347.477C396.563 347.428 396.712 347.373 396.854 347.314C396.613 347.906 396.353 348.488 396.094 349.056L395.148 351.094C394.352 352.791 393.56 354.483 392.873 356.229C391.445 359.828 390.262 363.544 389.116 367.133C388.438 369.244 387.769 371.359 387.047 373.447C383.271 384.383 378.462 394.877 372.354 405.526C369.187 411.053 366.417 414.956 363.374 418.185C359.493 422.307 354.708 425.305 350.141 428.021C345.547 430.75 340.689 433.247 335.994 435.663C332.3 437.564 328.484 439.525 324.785 441.604C321.592 443.4 317.921 445.548 314.855 448.313C312.631 450.32 311.462 452.289 311.38 454.167C311.316 455.469 311.789 456.692 312.731 457.712C313.3 458.321 314.104 458.639 314.924 458.639C317.415 458.639 320.619 457.152 322.324 456.501C325.49 455.305 328.366 453.667 331.008 452.08C334.434 450.019 337.863 447.976 341.293 445.929L348.248 441.781C355.263 437.582 362.669 433.771 369.833 430.081C374.605 427.625 379.541 425.087 384.335 422.448C396.481 415.757 405.356 409.211 412.27 401.837C419.69 393.922 425.38 383.996 430.715 369.658C435.552 356.666 438.621 343.257 440.997 331.848C443.999 317.4 446.565 304.373 448.83 292.031C450.144 284.862 451.349 277.752 452.419 270.902C452.855 268.077 453.369 265.251 453.879 262.426C454.575 258.569 455.298 254.58 455.835 250.572C456.039 249.049 456.381 246.501 454.521 244.868C452.391 242.993 449.558 244.181 448.193 244.75Z"
      fill="black" />
   <path
      d="M337.66 144.01C336.668 141.066 335.294 138.301 333.898 135.571C331.432 130.768 328.88 126.014 326.238 121.325C324.336 117.949 322.375 114.574 319.814 111.795C316.202 107.877 311.603 105.33 307.095 102.851C305.54 102.001 303.966 101.136 302.265 100.822C300.295 100.449 298.28 100.836 296.31 101.25C292.152 102.124 288.013 103.151 283.887 104.17C276.359 106.031 268.462 108.105 262.803 113.951C258.422 118.467 255.884 124.759 253.796 131.004C251.667 137.377 249.865 143.978 249.57 150.774C249.297 157.029 250.312 163.284 251.913 169.279C254.46 178.786 258.677 188.034 265.487 194.398C271.577 200.08 279.497 202.768 287.335 201.262C291.229 200.521 295.15 200.507 299.053 199.602C303.834 198.482 308.488 196.745 313.113 194.985C315.011 194.256 316.935 193.515 318.641 192.324C320.515 191.022 322.061 189.226 323.568 187.42C333.693 175.256 343.577 161.641 337.66 144.01ZM318.673 151.497C318.631 152.384 318.345 153.24 318.063 154.072C316.321 159.162 314.437 164.229 311.777 168.788C309.111 173.35 303.853 179.323 303.853 179.323C301.195 181.633 295.896 182.993 292.562 182.557C291.106 182.362 281.323 180.161 277.878 176.23C277.187 175.441 276.377 174.715 275.717 173.855C273.939 171.581 272.169 169.306 270.4 167.027C269.476 165.84 268.548 164.639 267.916 163.238C267.216 161.678 266.924 159.935 266.692 158.207C265.91 152.266 265.819 146.215 266.424 140.243C266.565 138.783 266.765 137.296 267.357 135.976C268.075 134.38 273.581 122.77 282.391 122.77C286.972 122.77 291.835 123.388 296.32 124.55C304.935 126.782 309.538 132.269 310.139 133.438C312.786 138.578 316.452 143.122 318.209 148.718C318.486 149.614 318.723 150.546 318.673 151.497Z"
      fill="black" />
</svg>