<svg width="512" height="512" viewBox="0 0 512 512" fill="none" xmlns="http://www.w3.org/2000/svg">
   <rect width="512" height="512" fill="white" />
   <path
      d="M233.291 242.949C232.845 242.128 232.423 241.353 232.19 240.556C231.809 239.257 231.483 237.944 231.156 236.631C230.627 234.494 230.076 232.282 229.287 230.119C227.954 226.456 226.507 222.095 225.919 217.548C225.299 212.77 224.362 207.877 222.973 202.159C222.612 200.668 222.452 199.137 222.286 197.515C222.134 196.062 221.977 194.563 221.665 193.078C221.197 190.866 220.757 188.656 220.321 186.443L219.881 184.234C218.673 178.213 215.415 165.887 215.389 165.788C213.409 157.645 211.342 149.505 209.956 144.093C209.511 142.343 209.031 140.602 208.551 138.861C208.157 137.429 207.762 135.994 207.386 134.556C207.258 134.072 207.179 133.394 207.095 132.675C206.946 131.391 206.792 130.063 206.294 129.07C204.911 126.334 201.301 126.942 198.663 127.391C197.819 127.53 197.027 127.667 196.436 127.682C195.33 127.711 194.192 127.696 193.048 127.679C190.794 127.647 188.471 127.609 186.244 127.918C183.999 128.232 183.021 128.768 182.768 131.257C182.482 134.136 183.312 137.432 184.046 140.34C184.191 140.908 184.328 141.458 184.454 141.982C184.919 143.944 185.432 145.892 185.941 147.839C186.981 151.79 188.052 155.872 188.663 159.965C189.214 163.668 189.828 167.36 190.445 171.052L190.716 172.691C190.782 173.092 190.831 173.496 190.861 173.901C190.915 174.632 190.964 175.358 191.1 176.085C191.141 176.321 191.193 176.527 191.243 176.708C191.184 176.723 191.126 176.74 191.062 176.76C189.065 177.334 186.442 177.776 183.053 178.109C181.644 178.245 180.238 178.499 178.881 178.746C177.135 179.063 175.49 179.363 173.824 179.436C173.344 179.459 172.761 179.518 172.136 179.581C170.794 179.718 168.773 179.925 168.031 179.596C166.875 179.078 165.676 178.207 164.406 177.282C163.367 176.525 162.293 175.741 161.201 175.142C160.389 174.696 159.544 174.207 158.677 173.707C154.72 171.421 150.234 168.833 145.812 168.28L145.602 168.253C141.419 167.73 135.704 167.011 131.709 169.709C127.238 172.737 127.861 179.284 128.318 184.062C128.405 184.953 128.487 185.8 128.531 186.566C128.763 190.734 129.413 194.939 130.041 199.006C130.763 203.655 131.506 208.464 131.608 213.154C131.634 214.386 133.992 228.698 135.579 234.014L136.105 235.752C136.993 238.66 137.905 241.668 138.438 244.666L138.519 245.158C138.804 246.862 139.192 249.194 140.833 250.382C142.784 251.791 146.208 251.24 147.908 250.559C148.962 250.137 149.984 249.68 150.997 249.222C152.77 248.428 154.441 247.677 156.272 247.115C157.032 246.885 157.786 246.672 158.54 246.463C159.672 246.143 160.802 245.828 161.935 245.447C162.211 245.354 162.564 245.281 162.945 245.199C164.15 244.937 165.652 244.608 166.505 243.601C168.622 241.097 166.648 237.394 165.207 234.69C164.887 234.09 164.595 233.551 164.412 233.115C163.262 230.413 162.287 227.577 161.347 224.834C161.015 223.877 160.689 222.919 160.348 221.958C159.873 220.616 159.314 219.306 158.773 218.04C158.249 216.799 157.702 215.521 157.253 214.249C156.787 212.928 156.302 211.614 155.815 210.305C154.173 205.873 152.621 201.69 151.809 197.174C150.962 192.478 149.294 185.727 146.158 180.233C145.948 179.864 145.733 179.494 145.515 179.124C144.816 177.939 144.142 176.795 143.666 175.603C143.64 175.539 143.702 175.471 143.768 175.494C144.542 175.757 145.664 176.233 147.294 177.048L147.506 177.156C148.118 177.462 148.717 177.814 149.314 178.166C150.356 178.778 151.431 179.41 152.613 179.849C155.512 180.932 158.013 182.053 160.77 183.981L161.099 184.213C164.694 186.723 168.412 189.32 171.699 192.156C178.954 198.415 183.792 206.886 188.471 215.079C189.598 217.047 190.722 219.015 191.874 220.951C196.614 228.902 200.821 237.627 204.757 247.685C205.805 250.358 206.987 253.383 209.22 255.61C210.117 256.504 211.206 256.795 212.297 256.795C213.528 256.795 214.766 256.425 215.738 256.137L216.224 255.992C218.184 255.429 220.204 255.231 222.344 255.025C222.97 254.961 223.593 254.9 224.219 254.83L225.244 254.716C227.034 254.521 228.877 254.318 230.711 253.982C230.863 253.957 231.055 253.945 231.255 253.93C231.745 253.898 232.298 253.86 232.767 253.677C234.251 253.098 234.426 252.294 234.51 251.226L234.636 250.02C234.807 248.594 235.002 246.972 234.461 245.426C234.152 244.538 233.716 243.729 233.291 242.949Z"
      fill="black" />
   <path
      d="M379.003 249.08C376.04 250.326 373.312 252.067 370.674 253.749C369.798 254.308 368.921 254.864 368.042 255.403C364.732 257.429 361.134 259.112 357.658 260.739L356.409 261.321C353.401 262.736 350.426 264.291 347.547 265.79C346.499 266.341 345.448 266.891 344.388 267.435C342.627 268.341 340.842 269.203 339.054 270.064C336.897 271.103 334.661 272.181 332.498 273.331C331.415 273.904 330.303 274.387 329.13 274.897C327.753 275.494 326.332 276.108 324.978 276.88C323.907 277.494 322.705 278.248 322.053 279.47C321.557 280.405 321.872 281.552 322.778 282.082C325.159 283.473 328.073 282.225 330.198 281.307C330.629 281.124 331.037 280.95 331.412 280.807L332.248 280.493C333.744 279.934 335.235 279.375 336.714 278.755C338.347 278.068 340.204 277.29 342.056 276.851C343.549 276.498 346.388 276.123 348.63 277.593C350.216 278.635 351.174 280.568 351.256 282.897C351.314 284.591 350.915 286.324 350.536 287.814C350.022 289.838 349.355 291.864 348.711 293.751L348.158 295.349C347.681 296.729 347.206 298.106 346.776 299.498L346.58 300.152C346.335 300.997 346.103 301.795 345.69 302.412C345.131 303.238 344.056 303.742 342.99 304.24C341.174 305.09 339.273 306.033 337.174 307.119C335.593 307.94 334.021 308.778 332.452 309.617C330.28 310.773 328.111 311.932 325.913 313.044C324.478 313.769 323.04 314.479 321.601 315.186C318.827 316.555 315.959 317.972 313.176 319.481C309.944 321.23 306.777 323.036 303.746 324.782C304.081 322.986 304.579 321.201 305.091 319.344C305.618 317.44 306.163 315.475 306.521 313.48C307.645 307.18 308.597 301.928 309.761 296.51C310.617 292.519 311.365 288.443 312.09 284.496C313.357 277.59 314.667 270.445 316.588 263.598C317.214 261.362 317.924 258.83 318.518 256.311L318.629 255.828C318.863 254.816 319.103 253.786 319.427 252.815C319.84 251.575 320.727 250.545 321.87 249.91C325.264 248.023 328.444 245.79 331.531 243.621C333.82 242.014 336.184 240.355 338.588 238.872C339.564 238.267 340.548 237.676 341.532 237.082C343.986 235.606 346.519 234.078 348.929 232.401L349.762 231.816C351.084 230.89 352.452 229.932 353.832 229.082C355.439 228.092 356.915 227.274 358.703 227.274H358.732C360.336 227.283 362.019 227.632 363.643 227.97L364.086 228.06C365.728 228.4 367.172 228.808 368.5 229.306C371.288 230.357 373.882 232.063 376.215 234.377C376.395 234.561 376.622 234.843 376.881 235.161C377.915 236.442 379.355 238.159 381.059 238.162C381.629 238.151 382.462 237.932 383.187 236.96C383.845 236.078 384.253 234.576 382.471 232.421C381.763 231.571 380.989 230.773 380.238 230.002C379.926 229.678 379.618 229.358 379.312 229.038C377.743 227.373 376.136 225.749 374.526 224.121C372.84 222.415 371.151 220.709 369.504 218.956C366.694 215.964 363.696 212.601 360.068 208.371C359.506 207.716 358.476 207.547 357.678 207.99C353.786 210.161 350.356 213.023 347.04 215.795L345.94 216.712C344.239 218.124 342.251 219.751 340.149 221.189C339.02 221.967 337.864 222.712 336.711 223.452C335.637 224.144 334.556 224.837 333.5 225.557C329.078 228.552 324.853 231.635 320.184 235.062L318.187 236.535C314.789 239.05 311.275 241.65 307.603 243.833C304.826 245.487 301.909 247.033 299.088 248.527C297.461 249.386 295.839 250.247 294.226 251.132C292.179 252.259 290.153 253.467 288.086 254.713C286.258 255.816 284.45 257.205 283.658 259.863C283.373 260.824 283.199 261.79 283.026 262.725C282.8 263.985 282.581 265.173 282.121 266.277C281.094 268.739 280.109 271.217 279.146 273.704C278.662 274.944 278.173 276.181 277.684 277.418C276.241 281.06 274.747 284.827 273.518 288.641C271.708 294.26 270.584 299.314 270.086 304.083C269.978 305.131 269.903 306.185 269.829 307.233C269.725 308.732 269.617 310.278 269.399 311.775C269.061 314.077 268.555 316.563 267.856 319.376C266.962 322.96 265.864 326.57 264.799 330.057C264.316 331.653 263.829 333.245 263.361 334.844C261.649 340.692 260.263 345.618 259.069 350.64C258.708 352.148 258.28 353.904 257.727 355.691C257.256 357.208 256.72 358.926 256.831 360.679C256.97 362.911 258.432 364.353 260.45 364.28C262.263 364.178 263.73 362.952 264.91 361.968L265.128 361.785C267.035 360.204 269.169 358.967 271.431 357.654C273.137 356.664 274.898 355.642 276.546 354.463C277.125 354.046 277.699 353.624 278.272 353.202C279.746 352.119 281.137 351.094 282.645 350.169C283.751 349.493 284.875 348.844 285.996 348.198C287.041 347.595 288.086 346.989 289.114 346.364C290.174 345.72 291.207 345.036 292.235 344.352C293.365 343.601 294.532 342.824 295.711 342.131C297.67 340.975 299.737 339.9 301.738 338.858L302.288 338.573C304.678 337.327 306.829 336.188 308.951 334.885L310.727 333.79C312.399 332.753 314.122 331.685 315.857 330.709C318.291 329.336 320.83 328.025 323.281 326.759C325.459 325.632 327.64 324.506 329.791 323.321C331.086 322.604 332.376 321.88 333.672 321.152C336.996 319.28 340.44 317.344 343.911 315.641C344.545 315.332 345.209 315.079 345.867 314.825C345.96 314.793 346.056 314.758 346.147 314.721C345.992 315.099 345.826 315.472 345.66 315.836L345.055 317.14C344.545 318.226 344.038 319.309 343.599 320.427C342.685 322.73 341.928 325.108 341.194 327.405C340.761 328.756 340.333 330.11 339.87 331.446C337.453 338.445 334.376 345.161 330.466 351.977C328.44 355.514 326.667 358.011 324.719 360.078C322.236 362.717 319.173 364.635 316.251 366.373C313.31 368.12 310.201 369.718 307.196 371.264C304.832 372.481 302.39 373.736 300.023 375.066C297.979 376.216 295.63 377.59 293.667 379.36C292.244 380.644 291.496 381.905 291.443 383.107C291.402 383.94 291.705 384.723 292.308 385.375C292.672 385.765 293.187 385.969 293.711 385.969C295.306 385.969 297.356 385.017 298.448 384.601C300.474 383.835 302.314 382.787 304.005 381.771C306.198 380.452 308.392 379.145 310.588 377.835L315.039 375.18C319.528 372.492 324.268 370.053 328.853 367.692C331.907 366.12 335.066 364.495 338.135 362.807C345.908 358.524 351.588 354.335 356.013 349.615C360.761 344.55 364.403 338.197 367.818 329.021C370.913 320.706 372.878 312.124 374.398 304.822C376.319 295.576 377.961 287.238 379.411 279.339C380.252 274.752 381.024 270.201 381.708 265.817C381.987 264.009 382.316 262.201 382.643 260.393C383.088 257.924 383.551 255.371 383.894 252.806C384.025 251.831 384.244 250.2 383.053 249.156C381.69 247.956 379.877 248.716 379.003 249.08Z"
      fill="black" />
   <path
      d="M308.262 184.606C307.627 182.722 306.748 180.952 305.855 179.206C304.277 176.131 302.643 173.089 300.952 170.088C299.735 167.927 298.48 165.767 296.841 163.988C294.53 161.481 291.586 159.851 288.701 158.265C287.706 157.72 286.698 157.167 285.61 156.966C284.349 156.727 283.059 156.975 281.799 157.24C279.137 157.799 276.488 158.457 273.848 159.109C269.03 160.3 263.976 161.627 260.354 165.368C257.55 168.259 255.926 172.286 254.589 176.283C253.227 180.362 252.074 184.586 251.885 188.935C251.71 192.938 252.36 196.941 253.385 200.778C255.015 206.863 257.713 212.782 262.072 216.855C265.97 220.491 271.038 222.211 276.055 221.248C278.547 220.773 281.056 220.764 283.554 220.185C286.614 219.469 289.592 218.357 292.553 217.23C293.767 216.764 294.998 216.29 296.09 215.527C297.29 214.694 298.279 213.544 299.243 212.388C305.724 204.604 312.05 195.89 308.262 184.606ZM296.111 189.398C296.084 189.966 295.901 190.513 295.721 191.046C294.605 194.303 293.4 197.547 291.697 200.464C289.991 203.384 286.626 207.206 286.626 207.206C284.925 208.685 281.533 209.556 279.4 209.276C278.468 209.151 272.207 207.743 270.002 205.227C269.56 204.722 269.041 204.258 268.619 203.707C267.481 202.252 266.348 200.796 265.216 199.337C264.625 198.578 264.031 197.809 263.627 196.912C263.178 195.914 262.992 194.798 262.843 193.692C262.342 189.89 262.284 186.018 262.671 182.195C262.762 181.261 262.89 180.309 263.268 179.465C263.728 178.443 267.252 171.013 272.89 171.013C275.822 171.013 278.934 171.408 281.805 172.152C287.318 173.581 290.265 177.092 290.649 177.84C292.343 181.13 294.69 184.038 295.814 187.619C295.991 188.193 296.143 188.79 296.111 189.398Z"
      fill="black" />
</svg>